<svg width="147" height="30" viewBox="0 0 147 30" fill="none" xmlns="http://www.w3.org/2000/svg">
<path d="M5.52 29V24.12H12.16C13.3867 24.12 14.3467 23.76 15.04 23.04C15.7333 22.32 16.08 21.44 16.08 20.4C16.08 19.68 15.92 19.04 15.6 18.48C15.28 17.92 14.8267 17.48 14.24 17.16C13.68 16.84 12.9867 16.68 12.16 16.68H5.52V11.92H11.64C12.68 11.92 13.52 11.6667 14.16 11.16C14.8 10.6267 15.12 9.82667 15.12 8.76C15.12 7.72 14.8 6.94667 14.16 6.44C13.52 5.90667 12.68 5.64 11.64 5.64H5.52V0.759999H12.84C14.6533 0.759999 16.1867 1.09333 17.44 1.76C18.72 2.42667 19.6933 3.32 20.36 4.44C21.0267 5.56 21.36 6.8 21.36 8.16C21.36 9.89333 20.8 11.36 19.68 12.56C18.56 13.76 16.9067 14.5867 14.72 15.04L14.88 12.92C17.2533 13.3733 19.08 14.2933 20.36 15.68C21.6667 17.0667 22.32 18.7733 22.32 20.8C22.32 22.3467 21.9333 23.7467 21.16 25C20.4133 26.2267 19.32 27.2 17.88 27.92C16.4667 28.64 14.76 29 12.76 29H5.52ZM0.72 29V0.759999H6.92V29H0.72ZM29.625 29.44C28.585 29.44 27.7183 29.08 27.025 28.36C26.3317 27.64 25.985 26.7733 25.985 25.76C25.985 24.6933 26.3317 23.8133 27.025 23.12C27.7183 22.4 28.585 22.04 29.625 22.04C30.6917 22.04 31.5583 22.4 32.225 23.12C32.9183 23.8133 33.265 24.6933 33.265 25.76C33.265 26.7733 32.9183 27.64 32.225 28.36C31.5583 29.08 30.6917 29.44 29.625 29.44ZM49.6972 29.44C47.3772 29.44 45.3239 28.9467 43.5372 27.96C41.7772 26.9733 40.3905 25.6133 39.3772 23.88C38.3905 22.12 37.8972 20.12 37.8972 17.88V0.759999H44.2172V18.24C44.2172 19.36 44.4572 20.3333 44.9372 21.16C45.4172 21.9867 46.0705 22.6267 46.8972 23.08C47.7505 23.5067 48.6839 23.72 49.6972 23.72C50.7639 23.72 51.6972 23.5067 52.4972 23.08C53.2972 22.6267 53.9239 22 54.3772 21.2C54.8572 20.3733 55.0972 19.4 55.0972 18.28V0.759999H61.4172V17.92C61.4172 20.16 60.9239 22.1467 59.9372 23.88C58.9505 25.6133 57.5772 26.9733 55.8172 27.96C54.0572 28.9467 52.0172 29.44 49.6972 29.44ZM69.7031 29.44C68.6631 29.44 67.7965 29.08 67.1031 28.36C66.4098 27.64 66.0631 26.7733 66.0631 25.76C66.0631 24.6933 66.4098 23.8133 67.1031 23.12C67.7965 22.4 68.6631 22.04 69.7031 22.04C70.7698 22.04 71.6365 22.4 72.3031 23.12C72.9965 23.8133 73.3431 24.6933 73.3431 25.76C73.3431 26.7733 72.9965 27.64 72.3031 28.36C71.6365 29.08 70.7698 29.44 69.7031 29.44ZM78.4153 29V0.759999H82.8953L94.0153 18.08H91.7353L102.815 0.759999H107.335V29H101.055V11.36L102.175 11.64L94.9353 22.92H90.7753L83.5753 11.64L84.6553 11.36V29H78.4153ZM116.031 29.44C114.991 29.44 114.125 29.08 113.431 28.36C112.738 27.64 112.391 26.7733 112.391 25.76C112.391 24.6933 112.738 23.8133 113.431 23.12C114.125 22.4 114.991 22.04 116.031 22.04C117.098 22.04 117.965 22.4 118.631 23.12C119.325 23.8133 119.671 24.6933 119.671 25.76C119.671 26.7733 119.325 27.64 118.631 28.36C117.965 29.08 117.098 29.44 116.031 29.44ZM129.543 18.72V13.84H135.623C136.397 13.84 137.103 13.68 137.743 13.36C138.383 13.04 138.89 12.5733 139.263 11.96C139.637 11.3467 139.823 10.6 139.823 9.72C139.823 8.86667 139.637 8.13333 139.263 7.52C138.89 6.90667 138.383 6.44 137.743 6.12C137.103 5.8 136.397 5.64 135.623 5.64H129.543V0.759999H136.543C138.33 0.759999 139.943 1.12 141.383 1.84C142.823 2.56 143.957 3.6 144.783 4.96C145.637 6.29333 146.063 7.88 146.063 9.72C146.063 11.56 145.637 13.16 144.783 14.52C143.957 15.8533 142.823 16.8933 141.383 17.64C139.943 18.36 138.33 18.72 136.543 18.72H129.543ZM124.743 29V0.759999H131.023V29H124.743Z" fill="#8E8DDB"/>
</svg>
